<?xml version="1.0" encoding="UTF-8"?>
<svg id="cake" xmlns="http://www.w3.org/2000/svg" width="271.31" height="279.99" viewBox="0 0 271.31 279.99">
  <g id="cake-body">
    <path d="M259.55,191.82c.23,29.32-.17,58.85,0,88.17H11.8c.17-29.32-.23-58.87,0-88.17h247.75Z" style="fill: #65513c;"/>
    <polygon points="259.57 255.49 259.55 259.28 11.8 259.28 11.78 255.49 259.57 255.49" style="fill: #e8d395;"/>
    <polygon points="259.57 244.98 259.55 248.77 11.8 248.77 11.78 244.98 259.57 244.98" style="fill: #e8d395;"/>
    <polygon points="259.57 234.01 259.55 237.8 11.8 237.8 11.78 234.01 259.57 234.01" style="fill: #e8d395;"/>
    <path d="M219.72,97.24v62.14c-55.98-1.04-112.11-1.04-168.09,0v-62.14s168.09,0,168.09,0Z" style="fill: #65513c;"/>
    <rect x="51.62" y="141.54" width="168.09" height="3.07" style="fill: #eed898;"/>
    <rect x="51.62" y="133.92" width="168.09" height="3.07" style="fill: #eed898;"/>
    <rect x="51.62" y="126.78" width="168.09" height="3.07" style="fill: #eed898;"/>
    <path d="M180.24,77.2v-42.34h9.13l.5,42.34c-3.21-.03-6.43.02-9.64,0h0Z" style="fill: #eed898;"/>
    <path d="M148.03,77.2v-42.34h9.13l.5,42.34c-3.21-.03-6.43.02-9.64,0h0Z" style="fill: #eed898;"/>
    <path d="M114.85,77.2v-42.34h9.13l.5,42.34c-3.21-.03-6.43.02-9.64,0h0Z" style="fill: #eed898;"/>
    <path d="M81.66,77.2v-42.34h9.13l.5,42.34c-3.21-.03-6.43.02-9.64,0h0Z" style="fill: #eed898;"/>
    <path d="M216.67,77.2c4.97,0,9,4.03,9,9v10.8c0,9.94-8.06,18-18,18s-18-8.05-18-18c0,9.94-8.05,18-18,18s-18-8.05-18-18c0,9.94-8.06,18-18,18s-18-8.05-18-18c0,9.94-8.06,18-18,18s-18-8.06-18-18c0,9.94-8.06,18-18,18s-18-8.05-18-18v-10.8c0-4.97,4.03-9,9-9h162.05Z" style="fill: #99f2e1;"/>
    <path d="M257.74,159.38c7.49,0,13.57,6.07,13.57,13.57v16.28c0,14.98-12.15,27.13-27.13,27.13s-27.13-12.15-27.13-27.13c0,14.98-12.15,27.13-27.13,27.13s-27.13-12.15-27.13-27.13c0,14.98-12.15,27.13-27.13,27.13s-27.13-12.15-27.13-27.13c0,14.98-12.15,27.13-27.13,27.13s-27.13-12.15-27.13-27.13c0,14.98-12.15,27.13-27.13,27.13S0,204.2,0,189.22v-16.28c0-7.49,6.07-13.57,13.56-13.57h244.18Z" style="fill: #99f2e1;"/>
  </g>
  <g id="fire">
    <path id="fire4" d="M184.43,0h1.25c4.08,8.37,17.51,30.47-.6,31.25-18.95.82-6.66-23.25-.65-31.25Z" style="fill: #feb81a;"/>
    <path id="fire3" d="M152.65,0h1.25c4.08,8.37,17.51,30.47-.6,31.25-18.95.82-6.66-23.25-.65-31.25Z" style="fill: #feb81a;"/>
    <path id="fire2" d="M119.03,0h1.25c4.55,8.31,18.45,31.24-.62,31.24s-5.17-22.92-.62-31.24h0Z" style="fill: #feb81a;"/>
    <path id="fire1" d="M85.41,0h1.25c6.01,8,18.3,32.07-.65,31.25-18.11-.79-4.67-22.88-.6-31.25Z" style="fill: #feb81a;"/>
  </g>
</svg>