<?xml version="1.0" encoding="UTF-8"?>
<svg xmlns="http://www.w3.org/2000/svg" width="271.31" height="279.99" viewBox="0 0 271.31 279.99">
  <g id="cake">
    <path d="M259.55,191.82c.23,29.32-.17,58.85,0,88.17H11.8c.17-29.32-.23-58.87,0-88.17h247.75Z" style="fill: #65513c;"/>
    <polygon points="259.57 232.84 259.55 249.18 11.8 249.18 11.78 232.84 259.57 232.84" style="fill: #e8d395;"/>
    <path d="M219.72,97.24v62.14c-55.98-1.04-112.11-1.04-168.09,0v-62.14h168.09Z" style="fill: #65513c;"/>
    <rect x="51.62" y="127" width="168.09" height="9.96" style="fill: #eed898;"/>
    <path d="M79.19,77.2v-42.34h12.98s.71,42.34.71,42.34c-4.56.02-9.14-.03-13.7,0h0Z" style="fill: #eed898;"/>
    <path d="M112.81,77.2v-42.34h12.98s.71,42.34.71,42.34c-4.56-.01-9.14-.01-13.7,0h0Z" style="fill: #eed898;"/>
    <path d="M146.43,77.2v-42.34h12.98s.71,42.34.71,42.34c-4.56-.03-9.14.02-13.7,0h0Z" style="fill: #eed898;"/>
    <path d="M178.21,77.2v-42.34h12.98s.71,42.34.71,42.34c-4.56-.03-9.14.02-13.7,0h0Z" style="fill: #eed898;"/>
    <path d="M221.56,77.2c5.27,0,9.54,4.27,9.54,9.54v11.45c0,10.54-8.55,19.09-19.09,19.09s-19.09-8.54-19.09-19.09c0,10.54-8.54,19.09-19.09,19.09s-19.09-8.54-19.09-19.09c0,10.54-8.55,19.09-19.09,19.09s-19.09-8.54-19.09-19.09c0,10.54-8.55,19.09-19.09,19.09s-19.09-8.55-19.09-19.09c0,10.54-8.55,19.09-19.09,19.09s-19.09-8.54-19.09-19.09v-11.45c0-5.27,4.27-9.54,9.54-9.54h171.78Z" style="fill: #99f2e1;"/>
    <path d="M257.74,159.38c7.49,0,13.57,6.07,13.57,13.57v16.28c0,14.98-12.15,27.13-27.13,27.13s-27.13-12.15-27.13-27.13c0,14.98-12.15,27.13-27.13,27.13s-27.13-12.15-27.13-27.13c0,14.98-12.15,27.13-27.13,27.13s-27.13-12.15-27.13-27.13c0,14.98-12.15,27.13-27.13,27.13s-27.13-12.15-27.13-27.13c0,14.98-12.15,27.13-27.13,27.13S0,204.2,0,189.22v-16.28c0-7.49,6.07-13.57,13.56-13.57h244.18Z" style="fill: #99f2e1;"/>
  </g>
  <g id="fire">
    <path id="fire4" d="M184.43,0h1.25c4.08,8.37,17.51,30.47-.6,31.25-18.95.82-6.66-23.25-.65-31.25Z" style="fill: #feb81a;"/>
    <path id="fire3" d="M152.65,0h1.25c4.08,8.37,17.51,30.47-.6,31.25-18.95.82-6.66-23.25-.65-31.25Z" style="fill: #feb81a;"/>
    <path id="fire2" d="M119.03,0h1.25c4.55,8.31,18.45,31.24-.62,31.24s-5.17-22.92-.62-31.24h0Z" style="fill: #feb81a;"/>
    <path id="fire1" d="M85.41,0h1.25c6.01,8,18.3,32.07-.65,31.25-18.11-.79-4.67-22.88-.6-31.25Z" style="fill: #feb81a;"/>
  </g>
</svg>