<?xml version="1.0" encoding="UTF-8"?>
<svg id="Layer_1" data-name="Layer 1" xmlns="http://www.w3.org/2000/svg" width="560" height="573.05" viewBox="0 0 560 573.05">
  <g id="cookie">
    <path d="M468.09,85.63c-5.98,14.9-20.55,25.42-37.59,25.42-22.37,0-40.5-18.13-40.5-40.5,0-11.53,4.83-21.93,12.56-29.31-37.02-18.05-78.6-28.19-122.56-28.19-19.25,0-38.05,1.95-56.21,5.65,11.72,9.53,19.21,24.07,19.21,40.35,0,28.72-23.28,52-52,52s-52-23.28-52-52c0-2.84.24-5.62.67-8.34C82.42,83.94,38.02,136.87,15.76,200.22c4.84-2.04,10.16-3.17,15.74-3.17,22.37,0,40.5,18.13,40.5,40.5s-18.13,40.5-40.5,40.5c-11.94,0-22.66-5.17-30.08-13.38-.94,9.33-1.42,18.8-1.42,28.38,0,154.64,125.36,280,280,280,52.45,0,101.52-14.43,143.48-39.52-1.6-4.36-2.48-9.06-2.48-13.98,0-22.37,18.13-40.5,40.5-40.5,8.06,0,15.57,2.37,21.88,6.43,47.49-50.17,76.62-117.9,76.62-192.43,0-82.24-35.46-156.19-91.91-207.42ZM111,389.05c-9.94,0-18-8.06-18-18s8.06-18,18-18,18,8.06,18,18-8.06,18-18,18ZM205.5,519.05c-22.37,0-40.5-18.13-40.5-40.5s18.13-40.5,40.5-40.5,40.5,18.13,40.5,40.5-18.13,40.5-40.5,40.5ZM268.5,358.05c-48.5,11-103.18-26.9-104.5-73-2-70,58.38-94,104.5-94s83.5,37.38,83.5,83.5-38.53,73.3-83.5,83.5ZM442.5,328.05c-22.37,0-40.5-18.13-40.5-40.5s18.13-40.5,40.5-40.5,40.5,18.13,40.5,40.5-18.13,40.5-40.5,40.5Z" style="fill: #b5804c;"/>
    <path d="M342,560.05c-49.62,0-95.7-15.16-133.87-41.09-.87.06-1.75.09-2.63.09-21.36,0-38.85-16.54-40.38-37.52-23.74-26.23-41.72-57.77-51.96-92.62-.71.09-1.43.14-2.16.14-9.94,0-18-8.06-18-18,0-8.09,5.34-14.93,12.69-17.2-1.43-10.56-2.19-21.34-2.19-32.3,0-8.16.41-16.23,1.21-24.17,1.92-19.05,6.08-37.44,12.21-54.89,18.96-53.96,56.78-99.05,105.55-127.35,21.91-12.72,46.03-22.05,71.65-27.27,15.47-3.15,31.48-4.81,47.88-4.81,18,0,35.52,2.01,52.37,5.79-2.79-5.5-4.37-11.71-4.37-18.29,0-11.53,4.83-21.93,12.56-29.31-37.02-18.06-78.6-28.2-122.56-28.2-19.25,0-38.05,1.95-56.21,5.65,11.72,9.53,19.21,24.07,19.21,40.35,0,28.72-23.28,52-52,52s-52-23.28-52-52c0-2.84.24-5.62.67-8.34C82.42,83.94,38.02,136.87,15.76,200.22c4.84-2.04,10.16-3.17,15.74-3.17,22.37,0,40.5,18.13,40.5,40.5s-18.13,40.5-40.5,40.5c-11.94,0-22.66-5.17-30.08-13.38-.94,9.33-1.42,18.8-1.42,28.38,0,154.64,125.36,280,280,280,31.23,0,61.26-5.12,89.3-14.56-8.96,1.02-18.07,1.56-27.3,1.56Z" style="fill: #a07045;"/>
    <path d="M191,111.05c28.72,0,52-23.28,52-52,0-16.29-7.49-30.82-19.21-40.35-30.07,6.13-58.39,17.09-84.11,32.01-.44,2.72-.67,5.5-.67,8.34,0,28.72,23.28,52,52,52h-.01Z" style="fill: #66461d;"/>
    <path d="M430.5,111.05c17.04,0,31.6-10.52,37.59-25.42-19.53-17.72-41.57-32.71-65.52-44.39-7.74,7.38-12.56,17.77-12.56,29.31,0,22.37,18.13,40.5,40.5,40.5h-.01Z" style="fill: #66461d;"/>
    <circle cx="442.5" cy="287.55" r="40.5" style="fill: #66461d;"/>
    <path d="M421,519.55c0,4.91.88,9.62,2.48,13.98,22.13-13.23,42.28-29.43,59.91-48.05-6.31-4.06-13.82-6.43-21.88-6.43-22.37,0-40.5,18.13-40.5,40.5h-.01Z" style="fill: #66461d;"/>
    <path d="M31.5,278.05c22.37,0,40.5-18.13,40.5-40.5s-18.13-40.5-40.5-40.5c-5.58,0-10.9,1.13-15.74,3.17-7.2,20.5-12.09,42.08-14.34,64.45,7.41,8.22,18.14,13.38,30.08,13.38Z" style="fill: #66461d;"/>
    <path d="M268.5,191.05c-46.12,0-106.5,24-104.5,94,1.32,46.1,56,84,104.5,73,44.97-10.2,83.5-37.38,83.5-83.5s-37.38-83.5-83.5-83.5Z" style="fill: #66461d;"/>
    <circle cx="111" cy="371.05" r="18" style="fill: #66461d;"/>
    <circle cx="205.5" cy="478.55" r="40.5" style="fill: #66461d;"/>
  </g>
  <g id="bites">
    <path id="bite1" d="M472.54,175.53c0,34.2,27.72,61.92,61.92,61.92,7.15,0,14.01-1.23,20.41-3.46-8.87-41.4-26.89-79.41-51.85-111.8-18.24,10.77-30.47,30.62-30.47,53.34Z" style="fill: #fff;"/>
    <path id="bite2" d="M468.22,83.17s0,0,0,0c-19.5-17.68-41.51-32.64-65.42-44.3,0,0,0,0-.01.01-.09.09-.18.18-.27.27.09-.09.23-.18.32-.26-20.14-9.82-41.68-17.31-64.17-22.09-16.34,17.7-27.06,40.65-29.34,66.05-.04,0-.08,0-.11.01-.29,3.31-.45,6.66-.45,10.05,0,62.06,50.31,112.36,112.36,112.36,42.77,0,79.95-23.89,98.93-59.06-14.16-23.48-31.65-44.73-51.84-63.06Z" style="fill: #fff;"/>
    <path id="bite3" d="M326.88,6.32c-12.16-2.83-24.67-4.76-37.46-5.68-1.17-.08-2.34-.16-3.52-.23-2.35-.14-4.71-.24-7.08-.31-2.37-.07-4.75-.1-7.13-.1-16.72,0-33.04,1.69-48.81,4.91-26.11,5.32-50.7,14.84-73.04,27.8,0,0,0,.02,0,.03,0,0,0-.02,0-.03-27.06,15.71-50.8,36.49-69.95,61.04-.24,3.41-.37,6.84-.37,10.31,0,78.98,64.02,143,143,143s143-64.02,143-143c0-37.8-14.67-72.16-38.62-97.73Z" style="fill: #fff;"/>
  </g>
</svg>