<?xml version="1.0" encoding="UTF-8"?>
<svg xmlns="http://www.w3.org/2000/svg" width="560.15" height="560.4" viewBox="0 0 560.15 560.4">
  <g id="bites">
    <path id="bite3" d="M544.21,186.69c-22.32,28.78-57.22,47.31-96.46,47.31-.61,0-1.21-.02-1.81-.03-.43,3.28-.67,6.63-.67,10.03,0,42.53,34.47,77,77,77,13.03,0,25.29-3.25,36.04-8.96,1.2-10.52,1.84-21.21,1.84-32.04,0-32.72-5.62-64.12-15.94-93.31Z" style="fill: #fff;"/>
    <path id="bite2" d="M447.75,234c39.24,0,74.14-18.53,96.46-47.31-27.06-76.57-86.48-137.87-161.83-167.44,7.74,18.72,12.03,39.23,12.03,60.74,0,41.63-16.01,79.52-42.2,107.87,22.35,28.11,56.84,46.13,95.54,46.13Z" style="fill: #fff;"/>
    <path id="bite1" d="M235.41,239c87.81,0,159-71.19,159-159,0-21.51-4.28-42.03-12.03-60.74C350.71,6.83,316.23,0,280.15,0,199.96,0,127.65,33.72,76.6,87.75c4.04,84.22,73.59,151.25,158.81,151.25Z" style="fill: #fff;"/>
  </g>
  <g id="cookie">
    <path d="M468.09,72.98c-5.98,14.9-20.55,25.42-37.59,25.42-22.37,0-40.5-18.13-40.5-40.5,0-11.53,4.83-21.93,12.56-29.31C365.54,10.54,323.96.4,280,.4c-19.25,0-38.05,1.95-56.21,5.65,11.72,9.53,19.21,24.07,19.21,40.35,0,28.72-23.28,52-52,52s-52-23.28-52-52c0-2.84.24-5.62.67-8.34C82.42,71.29,38.02,124.22,15.76,187.57c4.84-2.04,10.16-3.17,15.74-3.17,22.37,0,40.5,18.13,40.5,40.5s-18.13,40.5-40.5,40.5c-11.94,0-22.66-5.17-30.08-13.38-.94,9.33-1.42,18.8-1.42,28.38,0,154.64,125.36,280,280,280,52.45,0,101.52-14.43,143.48-39.52-1.6-4.36-2.48-9.06-2.48-13.98,0-22.37,18.13-40.5,40.5-40.5,8.06,0,15.57,2.37,21.88,6.43,47.49-50.17,76.62-117.9,76.62-192.43,0-82.24-35.46-156.19-91.91-207.42ZM111,376.4c-9.94,0-18-8.06-18-18s8.06-18,18-18,18,8.06,18,18-8.06,18-18,18ZM205.5,506.4c-22.37,0-40.5-18.13-40.5-40.5s18.13-40.5,40.5-40.5,40.5,18.13,40.5,40.5-18.13,40.5-40.5,40.5ZM268.5,345.4c-48.5,11-103.18-26.9-104.5-73-2-70,58.38-94,104.5-94s83.5,37.38,83.5,83.5-38.53,73.3-83.5,83.5ZM442.5,315.4c-22.37,0-40.5-18.13-40.5-40.5s18.13-40.5,40.5-40.5,40.5,18.13,40.5,40.5-18.13,40.5-40.5,40.5Z" style="fill: #b5804c;"/>
    <path d="M342,547.4c-49.62,0-95.7-15.16-133.87-41.09-.87.06-1.75.09-2.63.09-21.36,0-38.85-16.54-40.38-37.52-23.74-26.23-41.72-57.77-51.96-92.62-.71.09-1.43.14-2.16.14-9.94,0-18-8.06-18-18,0-8.09,5.34-14.93,12.69-17.2-1.43-10.56-2.19-21.34-2.19-32.3,0-8.16.41-16.23,1.21-24.17,1.92-19.05,6.08-37.44,12.21-54.89,18.96-53.96,56.78-99.05,105.55-127.35,21.91-12.72,46.03-22.05,71.65-27.27,15.47-3.15,31.48-4.81,47.88-4.81,18,0,35.52,2.01,52.37,5.79-2.79-5.5-4.37-11.71-4.37-18.29,0-11.53,4.83-21.93,12.56-29.31C365.54,10.54,323.96.4,280,.4c-19.25,0-38.05,1.95-56.21,5.65,11.72,9.53,19.21,24.07,19.21,40.35,0,28.72-23.28,52-52,52s-52-23.28-52-52c0-2.84.24-5.62.67-8.34C82.42,71.29,38.02,124.22,15.76,187.57c4.84-2.04,10.16-3.17,15.74-3.17,22.37,0,40.5,18.13,40.5,40.5s-18.13,40.5-40.5,40.5c-11.94,0-22.66-5.17-30.08-13.38-.94,9.33-1.42,18.8-1.42,28.38,0,154.64,125.36,280,280,280,31.23,0,61.26-5.12,89.3-14.56-8.96,1.02-18.07,1.56-27.3,1.56Z" style="fill: #a07045;"/>
    <path d="M191,98.4c28.72,0,52-23.28,52-52,0-16.29-7.49-30.82-19.21-40.35-30.07,6.13-58.39,17.09-84.11,32.01-.44,2.72-.67,5.5-.67,8.34,0,28.72,23.28,52,52,52Z" style="fill: #66461d;"/>
    <path d="M430.5,98.4c17.04,0,31.6-10.52,37.59-25.42-19.53-17.72-41.57-32.71-65.52-44.39-7.74,7.38-12.56,17.77-12.56,29.31,0,22.37,18.13,40.5,40.5,40.5Z" style="fill: #66461d;"/>
    <circle cx="442.5" cy="274.9" r="40.5" style="fill: #66461d;"/>
    <path d="M421,506.9c0,4.91.88,9.62,2.48,13.98,22.13-13.23,42.28-29.43,59.91-48.05-6.31-4.06-13.82-6.43-21.88-6.43-22.37,0-40.5,18.13-40.5,40.5Z" style="fill: #66461d;"/>
    <path d="M31.5,265.4c22.37,0,40.5-18.13,40.5-40.5s-18.13-40.5-40.5-40.5c-5.58,0-10.9,1.13-15.74,3.17-7.2,20.5-12.09,42.08-14.34,64.45,7.41,8.22,18.14,13.38,30.08,13.38Z" style="fill: #66461d;"/>
    <path d="M268.5,178.4c-46.12,0-106.5,24-104.5,94,1.32,46.1,56,84,104.5,73,44.97-10.2,83.5-37.38,83.5-83.5s-37.38-83.5-83.5-83.5Z" style="fill: #66461d;"/>
    <circle cx="111" cy="358.4" r="18" style="fill: #66461d;"/>
    <circle cx="205.5" cy="465.9" r="40.5" style="fill: #66461d;"/>
  </g>
</svg>