<?xml version="1.0" encoding="UTF-8"?>
<svg id="Layer_1" data-name="Layer 1" xmlns="http://www.w3.org/2000/svg" width="560" height="561" viewBox="0 0 560 561">
  <g id="cookie">
    <path d="M468.09,73.58c-5.98,14.9-20.55,25.42-37.59,25.42-22.37,0-40.5-18.13-40.5-40.5,0-11.53,4.83-21.93,12.56-29.31C365.54,11.14,323.96,1,280,1c-19.25,0-38.05,1.95-56.21,5.65,11.72,9.53,19.21,24.07,19.21,40.35,0,28.72-23.28,52-52,52s-52-23.28-52-52c0-2.84.24-5.62.67-8.34C82.42,71.89,38.02,124.82,15.76,188.17c4.84-2.04,10.16-3.17,15.74-3.17,22.37,0,40.5,18.13,40.5,40.5s-18.13,40.5-40.5,40.5c-11.94,0-22.66-5.17-30.08-13.38-.94,9.33-1.42,18.8-1.42,28.38,0,154.64,125.36,280,280,280,52.45,0,101.52-14.43,143.48-39.52-1.6-4.36-2.48-9.06-2.48-13.98,0-22.37,18.13-40.5,40.5-40.5,8.06,0,15.57,2.37,21.88,6.43,47.49-50.17,76.62-117.9,76.62-192.43,0-82.24-35.46-156.19-91.91-207.42ZM111,377c-9.94,0-18-8.06-18-18s8.06-18,18-18,18,8.06,18,18-8.06,18-18,18ZM205.5,507c-22.37,0-40.5-18.13-40.5-40.5s18.13-40.5,40.5-40.5,40.5,18.13,40.5,40.5-18.13,40.5-40.5,40.5ZM268.5,346c-48.5,11-103.18-26.9-104.5-73-2-70,58.38-94,104.5-94s83.5,37.38,83.5,83.5-38.53,73.3-83.5,83.5ZM442.5,316c-22.37,0-40.5-18.13-40.5-40.5s18.13-40.5,40.5-40.5,40.5,18.13,40.5,40.5-18.13,40.5-40.5,40.5Z" style="fill: #b5804c;"/>
    <path d="M342,548c-49.62,0-95.7-15.16-133.87-41.09-.87.06-1.75.09-2.63.09-21.36,0-38.85-16.54-40.38-37.52-23.74-26.23-41.72-57.77-51.96-92.62-.71.09-1.43.14-2.16.14-9.94,0-18-8.06-18-18,0-8.09,5.34-14.93,12.69-17.2-1.43-10.56-2.19-21.34-2.19-32.3,0-8.16.41-16.23,1.21-24.17,1.92-19.05,6.08-37.44,12.21-54.89,18.96-53.96,56.78-99.05,105.55-127.35,21.91-12.72,46.03-22.05,71.65-27.27,15.47-3.15,31.48-4.81,47.88-4.81,18,0,35.52,2.01,52.37,5.79-2.79-5.5-4.37-11.71-4.37-18.29,0-11.53,4.83-21.93,12.56-29.31C365.54,11.14,323.96,1,280,1c-19.25,0-38.05,1.95-56.21,5.65,11.72,9.53,19.21,24.07,19.21,40.35,0,28.72-23.28,52-52,52s-52-23.28-52-52c0-2.84.24-5.62.67-8.34C82.42,71.89,38.02,124.82,15.76,188.17c4.84-2.04,10.16-3.17,15.74-3.17,22.37,0,40.5,18.13,40.5,40.5s-18.13,40.5-40.5,40.5c-11.94,0-22.66-5.17-30.08-13.38-.94,9.33-1.42,18.8-1.42,28.38,0,154.64,125.36,280,280,280,31.23,0,61.26-5.12,89.3-14.56-8.96,1.02-18.07,1.56-27.3,1.56Z" style="fill: #a07045;"/>
    <path d="M191,99c28.72,0,52-23.28,52-52,0-16.29-7.49-30.82-19.21-40.35-30.07,6.13-58.39,17.09-84.11,32.01-.44,2.72-.67,5.5-.67,8.34,0,28.72,23.28,52,52,52h-.01Z" style="fill: #66461d;"/>
    <path d="M430.5,99c17.04,0,31.6-10.52,37.59-25.42-19.53-17.72-41.57-32.71-65.52-44.39-7.74,7.38-12.56,17.77-12.56,29.31,0,22.37,18.13,40.5,40.5,40.5h-.01Z" style="fill: #66461d;"/>
    <circle cx="442.5" cy="275.5" r="40.5" style="fill: #66461d;"/>
    <path d="M421,507.5c0,4.91.88,9.62,2.48,13.98,22.13-13.23,42.28-29.43,59.91-48.05-6.31-4.06-13.82-6.43-21.88-6.43-22.37,0-40.5,18.13-40.5,40.5h-.01Z" style="fill: #66461d;"/>
    <path d="M31.5,266c22.37,0,40.5-18.13,40.5-40.5s-18.13-40.5-40.5-40.5c-5.58,0-10.9,1.13-15.74,3.17-7.2,20.5-12.09,42.08-14.34,64.45,7.41,8.22,18.14,13.38,30.08,13.38Z" style="fill: #66461d;"/>
    <path d="M268.5,179c-46.12,0-106.5,24-104.5,94,1.32,46.1,56,84,104.5,73,44.97-10.2,83.5-37.38,83.5-83.5s-37.38-83.5-83.5-83.5Z" style="fill: #66461d;"/>
    <circle cx="111" cy="359" r="18" style="fill: #66461d;"/>
    <circle cx="205.5" cy="466.5" r="40.5" style="fill: #66461d;"/>
  </g>
  <g id="bites">
    <path id="bite1" d="M471.54,163.48c0,34.2,27.72,61.92,61.92,61.92,7.15,0,14.01-1.23,20.41-3.46-8.87-41.4-26.89-79.41-51.85-111.8-18.24,10.77-30.47,30.62-30.47,53.34Z" style="fill: #fff;"/>
    <path id="bite2" d="M468.22,71.12s0,0,0,0c-19.5-17.68-41.51-32.64-65.42-44.3,0,0,0,0-.01.01-.09.09-.18.18-.27.27.09-.09.23-.18.32-.26-20.14-9.82-41.68-17.31-64.17-22.09-16.34,17.7-27.06,40.65-29.34,66.05-.04,0-.08,0-.11.01-.29,3.31-.45,6.66-.45,10.05,0,62.06,50.31,112.36,112.36,112.36,42.77,0,79.95-23.89,98.93-59.06-14.16-23.48-31.65-44.73-51.84-63.06Z" style="fill: #fff;"/>
    <path id="bite3" d="M342.71,7.27c-14.01-3.25-28.41-5.48-43.14-6.54-1.35-.1-2.7-.19-4.05-.26-2.71-.16-5.43-.27-8.16-.35-2.73-.08-5.47-.12-8.21-.12-19.25,0-38.05,1.95-56.21,5.65-30.07,6.13-58.39,17.09-84.11,32.01,0,.01,0,.02-.01.03,0,0,0-.02,0-.03-31.16,18.09-58.51,42.03-80.56,70.29-.28,3.92-.43,7.88-.43,11.87,0,90.95,73.73,164.68,164.68,164.68s164.68-73.73,164.68-164.68c0-43.53-16.9-83.11-44.48-112.55Z" style="fill: #fff;"/>
  </g>
</svg>