<?xml version="1.0" encoding="UTF-8"?>
<svg id="cup-cake" xmlns="http://www.w3.org/2000/svg" width="227.15" height="280" viewBox="0 0 227.15 280">
  <defs>
    <style></style>
    <script>
      const cupCake = document.querySelector("#cup-cake");

      function logTheId() {
        console.log("You clicked on: " + this.id);
      }

      cupCake.addEventListener("click", logTheId);
    </script>
  </defs>
  <g id="cup-cake-2" data-name="cup-cake">
    <g>
      <polygon points="195.38 161.25 31.77 161.25 51.71 280 175.44 280 195.38 161.25" style="fill: #d85c72;"/>
      <polygon points="131.64 161.25 95.51 161.25 99.88 280 127.28 280 131.64 161.25" style="fill: #b04c5c;"/>
      <polygon points="195.26 161.25 177.32 161.25 161.93 280 175.54 280 195.26 161.25" style="fill: #b04c5c;"/>
      <polygon points="31.89 161.25 49.83 161.25 65.23 280 51.62 280 31.89 161.25" style="fill: #b04c5c;"/>
    </g>
    <path d="M200.43,125.16c-12.27-36.19-46.52-62.23-86.86-62.23s-74.59,26.04-86.86,62.23c-15.26,3.25-26.72,16.81-26.72,33.05,0,18.66,15.13,33.8,33.8,33.8,10.8,0,20.41-5.07,26.59-12.95,6.19,7.88,15.8,12.95,26.59,12.95s20.41-5.07,26.59-12.95c6.19,7.88,15.79,12.95,26.59,12.95s20.41-5.07,26.59-12.95c6.19,7.88,15.8,12.95,26.59,12.95,18.67,0,33.8-15.13,33.8-33.8,0-16.24-11.45-29.79-26.72-33.05Z" style="fill: #4d3d2e;"/>
    <g>
      <rect x="104.71" y="45.18" width="17.73" height="30.81" style="fill: #eed898;"/>
      <path d="M126.68,27.93c0-7.24-13.1-27.93-13.1-27.93,0,0-13.1,20.69-13.1,27.93s5.87,13.1,13.1,13.1,13.1-5.87,13.1-13.1Z" style="fill: #ffb819;"/>
    </g>
    <circle cx="55.81" cy="114.99" r="9.42" style="fill: #00bcb4;"/>
    <circle cx="149.59" cy="166.55" r="9.42" style="fill: #00bcb4;"/>
    <circle cx="159.56" cy="90.39" r="9.42" style="fill: #00bcb4;"/>
    <circle cx="106.38" cy="140.81" r="9.42" style="fill: #00bcb4;"/>
    <circle cx="21.05" cy="146.12" r="9.42" style="fill: #ffb819;"/>
    <circle cx="82.47" cy="88.73" r="9.42" style="fill: #ffb819;"/>
    <circle cx="166.5" cy="128.51" r="9.42" style="fill: #ffb819;"/>
    <circle cx="67.59" cy="158.2" r="9.42" style="fill: #d85c72;"/>
    <circle cx="205.27" cy="145.32" r="9.42" style="fill: #d85c72;"/>
    <circle cx="126.68" cy="108.77" r="9.42" style="fill: #d85c72;"/>
  </g>
</svg>