<?xml version="1.0" encoding="iso-8859-1"?>
<!-- Generator: Adobe Illustrator 29.5.1, SVG Export Plug-In . SVG Version: 9.03 Build 0)  -->
<svg version="1.1" id="cup-cake" xmlns="http://www.w3.org/2000/svg" xmlns:xlink="http://www.w3.org/1999/xlink" x="0px" y="0px"
	 viewBox="0 0 280 280" style="enable-background:new 0 0 280 280;" xml:space="preserve">
<defs>
	<script>const cupCake = document.querySelector(&quot;#cup-cake&quot;);

      function logTheId() {
        console.log(&quot;You clicked on: &quot; + this.id);
      }

      cupCake.addEventListener(&quot;click&quot;, logTheId);
		</script>
</defs>
<g id="cup-cake-2">
	<g>
		<polygon style="fill:#D85C72;" points="221.805,161.25 58.195,161.25 78.135,280 201.865,280 		"/>
		<polygon style="fill:#B04C5C;" points="158.065,161.25 121.935,161.25 126.305,280 153.705,280 		"/>
		<polygon style="fill:#B04C5C;" points="221.685,161.25 203.745,161.25 188.355,280 201.965,280 		"/>
		<polygon style="fill:#B04C5C;" points="58.315,161.25 76.255,161.25 91.655,280 78.045,280 		"/>
	</g>
	<path style="fill:#4D3D2E;" d="M226.855,125.16c-12.27-36.19-46.52-62.23-86.86-62.23s-74.59,26.04-86.86,62.23
		c-15.26,3.25-26.72,16.81-26.72,33.05c0,18.66,15.13,33.8,33.8,33.8c10.8,0,20.41-5.07,26.59-12.95
		c6.19,7.88,15.8,12.95,26.59,12.95s20.41-5.07,26.59-12.95c6.19,7.88,15.79,12.95,26.59,12.95s20.41-5.07,26.59-12.95
		c6.19,7.88,15.8,12.95,26.59,12.95c18.67,0,33.8-15.13,33.8-33.8c0-16.24-11.45-29.79-26.72-33.05H226.855z"/>
	<g>
		<path style="fill:#EED898;" d="M140,45.18L140,45.18c4.896,0,8.865,3.969,8.865,8.865V75.99h-17.73V54.045
			C131.135,49.149,135.104,45.18,140,45.18z"/>
		<path style="fill:#FFB819;" d="M153.105,27.93c0-7.24-13.1-27.93-13.1-27.93s-13.1,20.69-13.1,27.93s5.87,13.1,13.1,13.1
			S153.105,35.16,153.105,27.93z"/>
	</g>
	<circle style="fill:#00BCB4;" cx="82.235" cy="114.99" r="9.42"/>
	<circle style="fill:#00BCB4;" cx="176.015" cy="166.55" r="9.42"/>
	<circle style="fill:#00BCB4;" cx="185.985" cy="90.39" r="9.42"/>
	<circle style="fill:#00BCB4;" cx="132.805" cy="140.81" r="9.42"/>
	<circle style="fill:#FFB819;" cx="47.475" cy="146.12" r="9.42"/>
	<circle style="fill:#FFB819;" cx="108.895" cy="88.73" r="9.42"/>
	<circle style="fill:#FFB819;" cx="192.925" cy="128.51" r="9.42"/>
	<circle style="fill:#D85C72;" cx="94.015" cy="158.2" r="9.42"/>
	<circle style="fill:#D85C72;" cx="231.695" cy="145.32" r="9.42"/>
	<circle style="fill:#D85C72;" cx="153.105" cy="108.77" r="9.42"/>
</g>
</svg>
