<?xml version="1.0" encoding="UTF-8"?>
<svg id="donut" xmlns="http://www.w3.org/2000/svg" width="280" height="280" viewBox="0 0 280 280">
  <defs>
    <style></style>
    <script>
      const donut = document.querySelector("#donut");

      function logTheId() {
        console.log("You clicked on: " + this.id);
      }

      donut.addEventListener("click", logTheId);
    </script>
  </defs>
  <path d="M251.24,103.85c3.54,10.88-4.65,24.09-4.65,36.15s8.19,25.27,4.65,36.14c-3.66,11.28-18.17,17.13-24.99,26.51-6.9,9.48-8.03,25.06-17.51,31.96-9.39,6.83-24.52,3.13-35.79,6.8-10.88,3.53-20.89,15.53-32.95,15.53s-22.07-12-32.96-15.53c-11.27-3.66-26.4.03-35.79-6.8-9.48-6.9-10.61-22.48-17.5-31.96-6.83-9.38-21.34-15.23-25-26.51-3.53-10.87,4.65-24.08,4.65-36.14s-8.18-25.27-4.65-36.15c3.66-11.27,18.17-17.12,25-26.51,6.89-9.48,8.02-25.06,17.5-31.95,9.39-6.83,24.52-3.14,35.79-6.8,10.88-3.54,20.9-15.54,32.96-15.54s22.07,12,32.95,15.54c11.27,3.66,26.4-.04,35.79,6.8,9.48,6.89,10.61,22.47,17.51,31.95,6.83,9.39,21.34,15.24,24.99,26.51ZM187.58,140c0-26.28-21.3-47.58-47.58-47.58s-47.58,21.31-47.58,47.58,21.31,47.58,47.58,47.58,47.58-21.3,47.58-47.58Z" style="fill:rgb(168, 77, 2);"/>
  <path d="M98.96,234.61c-9.48-6.9-10.61-22.48-17.5-31.96-6.83-9.38-21.34-15.23-25-26.51-3.53-10.87,4.65-24.08,4.65-36.14s-8.18-25.27-4.65-36.15c3.66-11.27,18.17-17.12,25-26.51,6.89-9.48,8.02-25.06,17.5-31.95,9.39-6.83,24.52-3.14,35.79-6.8,6.47-2.11,12.63-7.2,19.1-10.99-4.41-2.58-8.96-4.55-13.85-4.55-12.06,0-22.07,12-32.96,15.54-11.27,3.66-26.4-.04-35.79,6.8-9.48,6.89-10.61,22.47-17.5,31.95-6.83,9.39-21.34,15.24-25,26.51-3.53,10.88,4.65,24.09,4.65,36.15s-8.18,25.27-4.65,36.14c3.66,11.28,18.17,17.13,25,26.51,6.89,9.48,8.02,25.06,17.5,31.96,9.39,6.83,24.52,3.13,35.79,6.8,10.88,3.53,20.9,15.53,32.96,15.53,4.89,0,9.44-1.97,13.85-4.55-6.47-3.78-12.63-8.88-19.1-10.98-11.27-3.66-26.4.03-35.79-6.8Z" style="fill:rgb(112, 67, 30);"/>
  <path d="M140,0c77.32,0,140,62.68,140,140s-62.68,140-140,140S0,217.32,0,140,62.68,0,140,0ZM246.59,140c0-12.06,8.19-25.27,4.65-36.15-3.66-11.27-18.17-17.12-24.99-26.51-6.9-9.48-8.03-25.06-17.51-31.95-9.39-6.83-24.52-3.14-35.79-6.8-10.88-3.54-20.89-15.54-32.95-15.54s-22.07,12-32.96,15.54c-11.27,3.66-26.4-.04-35.79,6.8-9.48,6.89-10.61,22.47-17.5,31.95-6.83,9.39-21.34,15.24-25,26.51-3.53,10.88,4.65,24.09,4.65,36.15s-8.18,25.27-4.65,36.14c3.66,11.28,18.17,17.13,25,26.51,6.89,9.48,8.02,25.06,17.5,31.96,9.39,6.83,24.52,3.13,35.79,6.8,10.88,3.53,20.9,15.53,32.96,15.53s22.07-12,32.95-15.53c11.27-3.66,26.4.03,35.79-6.8,9.48-6.9,10.61-22.48,17.51-31.96,6.83-9.38,21.34-15.23,24.99-26.51,3.54-10.87-4.65-24.08-4.65-36.14Z" style="fill: #f7b239;"/>
  <path d="M13.3,140C13.3,64.9,72.41,3.63,146.65.16c-2.2-.1-4.42-.16-6.65-.16C62.68,0,0,62.68,0,140s62.68,140,140,140c2.23,0,4.44-.06,6.65-.16-74.24-3.47-133.35-64.75-133.35-139.84Z" style="fill: #e09b2d;"/>
  <g>
    <path d="M121.93,64.49l15.51,9.97c.93.6,1.96.88,2.99.88,1.82,0,3.61-.9,4.67-2.55,1.65-2.57.91-6-1.66-7.66l-15.51-9.97c-2.57-1.65-6-.91-7.66,1.66-1.65,2.57-.91,6,1.66,7.66Z" style="fill: #fff;"/>
    <path d="M164.55,200.99l-16.04,9.11c-2.66,1.51-3.59,4.89-2.08,7.55,1.02,1.8,2.89,2.8,4.82,2.8.93,0,1.87-.23,2.73-.72l16.04-9.11c2.66-1.51,3.59-4.89,2.08-7.55-1.51-2.66-4.89-3.59-7.55-2.08Z" style="fill: #fff;"/>
    <path d="M92.81,193.23c-.27-3.05-2.95-5.3-6-5.04-3.05.27-5.3,2.95-5.04,6l1.6,18.37c.25,2.88,2.67,5.06,5.51,5.06.16,0,.32,0,.49-.02,3.05-.27,5.3-2.95,5.04-6l-1.6-18.37Z" style="fill: #fff;"/>
    <path d="M64.02,101.11h-.02c-3.05,0-5.53,2.47-5.54,5.53l-.05,18.44c0,3.06,2.46,5.55,5.52,5.56h.02c3.05,0,5.53-2.47,5.54-5.53l.05-18.44c0-3.06-2.46-5.55-5.52-5.56Z" style="fill: #fff;"/>
    <path d="M218,96.01l-18.2-2.97c-3.02-.49-5.87,1.56-6.36,4.58-.49,3.02,1.56,5.87,4.58,6.36l18.2,2.97c.3.05.6.07.9.07,2.67,0,5.02-1.93,5.46-4.65.49-3.02-1.56-5.87-4.58-6.36Z" style="fill: #fff;"/>
    <path d="M211.42,149.98h-.02c-3.05,0-5.53,2.47-5.54,5.53l-.05,18.44c0,3.06,2.46,5.55,5.53,5.56h.02c3.05,0,5.53-2.47,5.54-5.53l.05-18.44c0-3.06-2.46-5.55-5.53-5.56Z" style="fill: #fff;"/>
  </g>
</svg>