<?xml version="1.0" encoding="UTF-8"?>
<svg id="donut" xmlns="http://www.w3.org/2000/svg" width="280" height="280" viewBox="0 0 280 280">
  <defs>
    <style>
      .cls-1 {
        fill: #e09b2d;
      }

      .cls-2 {
        fill: #f7b239;
      }

      .cls-3 {
        fill: #a84d02;
      }

      .cls-4 {
        fill: #fff;
      }

      .cls-5 {
        fill: #70431e;
      }
    </style>
    <script>
      const donut = document.querySelector("#donut");

      function logTheId() {
        console.log("You clicked on: " + this.id);
      }

      donut.addEventListener("click", logTheId);
    </script>
  </defs>
  <g id="glaze">
    <path class="cls-3" d="M193.1,35.78c10.2,5.19,13.75,20.32,22.27,28.85,8.53,8.53,23.66,12.08,28.84,22.27,5.39,10.56-.74,24.96,1.07,36.42,1.82,11.58,12.04,23.4,10.22,34.98-1.81,11.47-15.13,19.55-20.5,30.12-5.2,10.19-3.79,25.75-12.32,34.28-8.53,8.53-24.09,7.12-34.29,12.32-10.56,5.38-18.65,18.69-30.12,20.5-11.58,1.82-23.4-8.39-34.97-10.22-11.46-1.8-25.86,4.32-36.42-1.07-10.18-5.19-13.74-20.32-22.27-28.84-8.53-8.53-23.65-12.08-28.85-22.27-5.38-10.56.74-24.95-1.07-36.42-1.83-11.58-12.05-23.39-10.22-34.97,1.81-11.47,15.12-19.56,20.5-30.12,5.19-10.2,3.79-25.77,12.32-34.29s24.09-7.12,34.29-12.31c10.56-5.38,18.64-18.7,30.12-20.5,11.58-1.83,23.39,8.39,34.97,10.21,11.47,1.81,25.87-4.31,36.42,1.07h0ZM173.64,106.36c-18.58-18.58-48.71-18.58-67.29,0s-18.58,48.71,0,67.29,48.71,18.58,67.29,0,18.58-48.71,0-67.29Z"/>
    <path class="cls-5" d="M182.36,229.15c-11.58,1.82-27.95-4.95-39.53-6.78-11.46-1.8-25.79,7.64-36.35,2.25-10.18-5.19-6.62-23.91-15.14-32.44-8.53-8.53-24.63-11.79-29.82-21.98-5.38-10.56,3.6-21.91,1.79-33.38-1.83-11.58-12.84-26.26-11.01-37.84,1.81-11.47,6.9-16.43,12.29-26.98,3.08-6.07,3.84-14.02,5.73-21.28-4.94,1.29-9.55,3.12-13.01,6.58-8.53,8.53-7.12,24.09-12.32,34.29-5.38,10.56-18.7,18.64-20.5,30.12-1.83,11.58,8.39,23.39,10.22,34.97,1.81,11.47-4.31,25.87,1.07,36.42,5.2,10.19,20.32,13.75,28.85,22.27s12.08,23.65,22.27,28.84c10.56,5.39,24.96-.74,36.42,1.07,11.58,1.83,23.39,12.05,34.97,10.22,11.47-1.81,19.55-15.13,30.12-20.5,10.19-5.2,25.76-3.8,34.29-12.32,3.46-3.46,5.28-8.07,6.58-13.01-7.25,1.9-15.21,2.65-21.27,5.74-10.56,5.38-14.16,11.92-25.63,13.73Z"/>
  </g>
  <g id="dough">
    <path class="cls-2" d="M41.01,41.01c54.67-54.67,143.32-54.67,197.99,0s54.67,143.32,0,197.99-143.32,54.67-197.99,0-54.67-143.32,0-197.99ZM215.37,64.63c-8.53-8.53-12.08-23.66-22.27-28.85-10.56-5.38-24.95.74-36.42-1.07-11.58-1.82-23.4-12.04-34.97-10.21-11.47,1.81-19.56,15.12-30.12,20.5-10.2,5.19-25.76,3.78-34.29,12.31s-7.12,24.09-12.32,34.29c-5.38,10.56-18.7,18.64-20.5,30.12-1.83,11.58,8.39,23.39,10.22,34.97,1.81,11.47-4.31,25.87,1.07,36.42,5.2,10.19,20.32,13.75,28.85,22.27s12.08,23.65,22.27,28.84c10.56,5.39,24.96-.74,36.42,1.07,11.58,1.83,23.39,12.05,34.97,10.22,11.47-1.81,19.55-15.13,30.12-20.5,10.19-5.2,25.76-3.8,34.29-12.32,8.53-8.53,7.12-24.09,12.32-34.28,5.38-10.56,18.69-18.65,20.5-30.12,1.82-11.58-8.39-23.4-10.22-34.98-1.8-11.46,4.32-25.86-1.07-36.42-5.18-10.19-20.32-13.74-28.84-22.27Z"/>
    <path class="cls-1" d="M50.41,229.59C-2.69,176.49-4.22,91.37,45.82,36.42c-1.63,1.48-3.24,3.01-4.82,4.59-54.67,54.67-54.67,143.32,0,197.99s143.32,54.67,197.99,0c1.58-1.58,3.1-3.18,4.59-4.82-54.95,50.04-140.08,48.51-193.17-4.59h0Z"/>
  </g>
  <g id="sugar">
    <path class="cls-4" d="M123.61,71.06l14.11,9.07c.85.55,1.78.8,2.72.8,1.66,0,3.28-.82,4.25-2.32,1.5-2.34.83-5.46-1.51-6.97l-14.11-9.07c-2.34-1.5-5.46-.83-6.97,1.51-1.5,2.34-.83,5.46,1.51,6.97h0Z"/>
    <path class="cls-4" d="M162.63,207.68l-14.59,8.29c-2.42,1.37-3.27,4.45-1.89,6.87.93,1.64,2.63,2.55,4.39,2.55.85,0,1.7-.21,2.48-.66l14.59-8.29c2.42-1.37,3.27-4.45,1.89-6.87s-4.45-3.27-6.87-1.89h0Z"/>
    <path class="cls-4" d="M91.34,192.18c-.25-2.78-2.68-4.82-5.46-4.59-2.78.25-4.82,2.68-4.59,5.46l1.46,16.71c.23,2.62,2.43,4.6,5.01,4.6.15,0,.29,0,.45-.02,2.78-.25,4.82-2.68,4.59-5.46l-1.46-16.71Z"/>
    <path class="cls-4" d="M70.91,104.38h-.02c-2.78,0-5.03,2.25-5.04,5.03l-.05,16.78c0,2.78,2.24,5.05,5.02,5.06h.02c2.78,0,5.03-2.25,5.04-5.03l.05-16.78c0-2.78-2.24-5.05-5.02-5.06Z"/>
    <path class="cls-4" d="M216.2,106.87l1.39-16.72c.23-2.77-1.84-5.21-4.61-5.44-2.77-.23-5.21,1.84-5.44,4.61l-1.39,16.72c-.02.28-.02.55,0,.82.19,2.42,2.11,4.42,4.61,4.62,2.77.23,5.21-1.84,5.44-4.61Z"/>
    <path class="cls-4" d="M219.59,171.69h-.01c-1.96-1.98-5.15-1.98-7.12-.02l-11.9,11.83c-1.97,1.97-1.99,5.15-.02,7.14h.01c1.96,1.98,5.15,1.98,7.12.02l11.9-11.83c1.97-1.97,1.99-5.15.02-7.14Z"/>
  </g>
</svg>