<?xml version="1.0" encoding="UTF-8"?>
<svg id="muffin" xmlns="http://www.w3.org/2000/svg" width="227.14" height="257.71" viewBox="0 0 227.14 257.71">
  <defs>
    <style>
      .cls-1 {
        fill: #857def;
      }

      .cls-2 {
        fill: #00bcb4;
      }

      .cls-3 {
        fill: #8c3f48;
      }

      .cls-4 {
        fill: #4d3d2e;
      }

      .cls-5 {
        fill: #eed898;
      }

      .cls-6 {
        fill: #91c17e;
      }

      .cls-7 {
        fill: #ffb819;
      }

      .cls-8 {
        fill: #e2c85d;
      }

      .cls-9 {
        fill: #d35f70;
      }

      .cls-10 {
        fill: #d85c72;
      }
    </style>
    	<script>const muffin = document.querySelector("#muffin";);

      function logTheId() {
        console.log(&quot;You clicked on: &quot; + this.id);
      }

      muffin.addEventListener(&quot;click&quot;, logTheId);
		</script>
  </defs>
  <g id="muffin-body">
    <g id="cup">
      <polygon class="cls-9" points="210.63 161.25 16.54 161.25 40.19 257.71 186.98 257.71 210.63 161.25"/>
      <polygon class="cls-3" points="135.02 161.25 92.15 161.25 97.34 257.71 129.84 257.71 135.02 161.25"/>
      <polygon class="cls-3" points="210.49 161.25 189.21 161.25 170.95 257.71 187.1 257.71 210.49 161.25"/>
      <polygon class="cls-3" points="16.68 161.25 37.96 161.25 56.23 257.71 40.09 257.71 16.68 161.25"/>
    </g>
    <path id="muffin-coat" class="cls-4" d="M200.44,118.92c-12.27-32.56-46.52-55.99-86.86-55.99s-74.59,23.43-86.86,55.99c-15.26,2.92-26.72,15.12-26.72,29.73,0,16.79,15.13,30.41,33.8,30.41,10.8,0,20.41-4.56,26.59-11.65,6.19,7.09,15.8,11.65,26.59,11.65s20.41-4.56,26.59-11.65c6.19,7.09,15.79,11.65,26.59,11.65s20.41-4.56,26.59-11.65c6.19,7.09,15.8,11.65,26.59,11.65,18.67,0,33.8-13.61,33.8-30.41,0-14.61-11.45-26.8-26.72-29.73h.02Z"/>
    <g id="sugar">
      <circle class="cls-6" cx="64.55" cy="109.56" r="7.99"/>
      <circle class="cls-2" cx="144.05" cy="153.26" r="7.99"/>
      <circle class="cls-2" cx="152.5" cy="88.7" r="7.99"/>
      <circle class="cls-2" cx="107.42" cy="131.44" r="7.99"/>
      <circle class="cls-1" cx="35.09" cy="135.95" r="7.99"/>
      <circle class="cls-1" cx="87.15" cy="87.3" r="7.99"/>
      <circle class="cls-6" cx="158.39" cy="121.02" r="7.99"/>
      <circle class="cls-8" cx="74.54" cy="146.19" r="7.99"/>
      <circle class="cls-10" cx="191.25" cy="135.27" r="7.99"/>
      <circle class="cls-8" cx="124.63" cy="104.28" r="7.99"/>
    </g>
  </g>
  <g id="candle">
    <path id="candle-body" class="cls-5" d="M113.58,45.18h0c4.89,0,8.86,3.97,8.86,8.86v21.95h-17.73v-21.95c0-4.89,3.97-8.86,8.86-8.86Z"/>
    <path id="fire" class="cls-7" d="M126.69,27.93c0-7.24-13.1-27.93-13.1-27.93,0,0-13.1,20.69-13.1,27.93s5.87,13.1,13.1,13.1,13.1-5.87,13.1-13.1Z"/>
  </g>
</svg>