<?xml version="1.0" encoding="UTF-8"?>
<svg id="pretzel" xmlns="http://www.w3.org/2000/svg" width="280.05" height="267.9" viewBox="0 0 280.05 267.9">
  <defs>
    <style>
      .cls-1 {
        fill: #f7a941;
      }

      .cls-2 {
        fill: #fff;
      }

      .cls-3 {
        fill: #c05501;
      }

      .cls-4 {
        fill: #dc781e;
      }
    </style>
    <script>
      const pretzel = document.querySelector("#pretzel");

      function logTheId() {
        console.log("You clicked on: " + this.id);
      }

      pretzel.addEventListener("click", logTheId);
    </script>
  </defs>
  <g id="bites">
    <path id="bite1" class="cls-2" d="M208.84.4c.19,5.88,4.59,10.68,10.29,11.51-.65,1.67-1.02,3.48-1.02,5.38,0,7.57,5.68,13.8,13.01,14.68,0,.04,0,.08,0,.12,0,13.52,10.96,24.48,24.48,24.48,4.61,0,8.91-1.27,12.59-3.48,1.55,4.18,5.22,7.32,9.71,8.1C270.37,28.65,242.78,3.79,208.84.4Z"/>
    <path id="bite2" class="cls-2" d="M261.57,28.29c-5.21-3.34-11.41-5.27-18.05-5.27-3.07,0-6.05.42-8.87,1.19-1.92-9.21-10.08-16.13-19.86-16.13-.12,0-.24.02-.36.02.23-1.11.36-2.25.36-3.42s-.14-2.39-.39-3.52c-4.37-.75-8.85-1.16-13.43-1.16h-6.24c-4.26,0-8.44.35-12.53,1.01-.27,1.18-.42,2.41-.42,3.67,0,8.31,6.14,15.16,14.13,16.32-.89,2.29-1.4,4.77-1.4,7.38,0,9.91,7.11,18.14,16.5,19.92-.16.64-.31,1.29-.43,1.95,12.08,4.02,20.79,15.4,20.79,28.83v8.77c3.77,1.47,7.87,2.28,12.16,2.28,8.44,0,16.14-3.12,22.04-8.26,3.17,4.21,8.2,6.94,13.87,6.94.21,0,.41-.02.62-.03v-9.69c0-19.34-6.95-37.04-18.48-50.78Z"/>
    <path id="bite3" class="cls-2" d="M200.92.06h-6.24c-21.18,0-40.45,8.38-54.65,22-.02.02-.04.02-.06,0C125.76,8.44,106.5.06,85.32.06h-6.24C61.61.06,45.48,5.73,32.4,15.31c10.03,9.51,23.57,15.36,38.48,15.36.1,0,.2,0,.29,0,.58,6.4,2.06,12.54,4.31,18.3,1.17-.14,2.35-.21,3.55-.21h5.62c16.52,0,30.51,12.92,31,29.43.09,3.23-.32,6.37-1.17,9.34,7.4,2.79,15.41,4.34,23.78,4.34,9.58,0,18.69-2.02,26.94-5.63-.62-2.59-.93-5.28-.85-8.04.48-16.51,14.49-29.43,31-29.43h5.57c16.78,0,30.39,13.6,30.39,30.39v12.47c1.72.15,3.45.24,5.21.24,6.03,0,11.84-.89,17.34-2.51,4.84,11.8,14.3,21.2,26.13,25.98v-36.19C280,35.46,244.59.06,200.92.06Z"/>
  </g>
  <g id="pretzel-body">
    <path class="cls-4" d="M200.92.07h-6.24c-21.18,0-40.45,8.38-54.65,22-.02.02-.04.02-.06,0C125.76,8.45,106.5.07,85.32.07h-6.24C35.4.07,0,35.48,0,79.15v48.74c0,37.4,14.56,72.55,41,99,26.44,26.44,61.6,41,99,41s72.55-14.56,99-41c26.44-26.44,41-61.6,41-99v-48.74C280,35.48,244.6.07,200.92.07ZM48.7,79.1c0-16.73,13.61-30.34,30.34-30.34h5.62c16.52,0,30.51,12.92,31,29.43.37,12.71-7.08,24.15-18.78,28.96l-48.11,19.81s-.06,0-.06-.04v-47.82h0ZM140,219.2c-33.35,0-62.59-17.98-78.52-44.75-.01-.02,0-.06.02-.07l53.91-22.2c.09-.04.19-.08.28-.12,15.58-6.49,33-6.5,48.58-.02.11.04.22.09.32.13l53.91,22.2s.04.04.02.07c-15.94,26.77-45.17,44.75-78.52,44.75h0ZM231.3,126.99l-48.17-19.84c-11.69-4.82-19.15-16.25-18.78-28.96.48-16.51,14.49-29.43,31-29.43h5.57c16.78,0,30.39,13.6,30.39,30.39v47.84h0Z"/>
    <path class="cls-3" d="M152.17,267.37c-4.03.34-8.09.53-12.17.53-37.4,0-72.55-14.56-99-41C14.56,200.45,0,165.29,0,127.9v-48.79C0,35.52,35.45.07,79.03.07h6.29c3.05,0,6.07.18,9.03.52C55.01,5.08,11.19,34.79,11.19,75.31v48.79c0,37.4,14.56,72.55,41,99,23.55,23.55,67.18,41.46,99.98,44.28h0Z"/>
  </g>
  <g id="salt">
    <path id="salt3" class="cls-1" d="M143.04,42.68v6.09c0,2.52-2.04,4.57-4.57,4.57s-4.57-2.04-4.57-4.57v-6.09c0-2.52,2.04-4.57,4.57-4.57s4.57,2.04,4.57,4.57ZM199.35,13.77c-2.52,0-4.57,2.04-4.57,4.57v6.09c0,2.52,2.04,4.57,4.57,4.57s4.57-2.04,4.57-4.57v-6.09c0-2.52-2.04-4.57-4.57-4.57ZM254.13,135.51h-6.09c-2.52,0-4.57,2.04-4.57,4.57s2.04,4.57,4.57,4.57h6.09c2.52,0,4.57-2.04,4.57-4.57s-2.04-4.57-4.57-4.57ZM167.84,118.58c-1.78-1.78-4.67-1.78-6.46,0-1.78,1.78-1.78,4.67,0,6.46l4.3,4.3c.89.89,2.06,1.34,3.23,1.34s2.34-.45,3.23-1.34c1.78-1.78,1.78-4.67,0-6.46l-4.3-4.3h0ZM228.71,29.06c-1.78-1.78-4.67-1.78-6.46,0-1.78,1.78-1.78,4.67,0,6.46l4.3,4.3c.89.89,2.06,1.34,3.23,1.34s2.34-.45,3.23-1.34c1.78-1.78,1.78-4.67,0-6.46l-4.3-4.3h0ZM263.45,88.15l-4.3-4.3c-1.78-1.78-4.67-1.78-6.46,0-1.78,1.78-1.78,4.67,0,6.46l4.3,4.3c.89.89,2.06,1.34,3.23,1.34s2.34-.45,3.23-1.34c1.78-1.78,1.78-4.67,0-6.46h0ZM77.61,13.77c-2.52,0-4.57,2.04-4.57,4.57v6.09c0,2.52,2.04,4.57,4.57,4.57s4.57-2.04,4.57-4.57v-6.09c0-2.52-2.04-4.57-4.57-4.57ZM101.96,123.33c-2.52,0-4.57,2.04-4.57,4.57v6.09c0,2.52,2.04,4.57,4.57,4.57s4.57-2.04,4.57-4.57v-6.09c0-2.52-2.04-4.57-4.57-4.57ZM31.96,53.33h-6.09c-2.52,0-4.57,2.04-4.57,4.57s2.04,4.57,4.57,4.57h6.09c2.52,0,4.57-2.04,4.57-4.57s-2.04-4.57-4.57-4.57ZM132.39,98.98h-6.09c-2.52,0-4.57,2.04-4.57,4.57s2.04,4.57,4.57,4.57h6.09c2.52,0,4.57-2.04,4.57-4.57s-2.04-4.57-4.57-4.57ZM109.12,22.97l-4.3,4.3c-1.78,1.78-1.78,4.67,0,6.46.89.89,2.06,1.34,3.23,1.34s2.34-.45,3.23-1.34l4.3-4.3c1.78-1.78,1.78-4.67,0-6.46-1.78-1.78-4.67-1.78-6.46,0ZM23.9,96.02l-4.3,4.3c-1.78,1.78-1.78,4.67,0,6.46.89.89,2.06,1.34,3.23,1.34s2.34-.45,3.23-1.34l4.3-4.3c1.78-1.78,1.78-4.67,0-6.46-1.78-1.78-4.67-1.78-6.46,0Z"/>
    <path id="salt2" class="cls-1" d="M76.08,146.16v6.09c0,2.52-2.04,4.57-4.57,4.57s-4.57-2.04-4.57-4.57v-6.09c0-2.52,2.04-4.57,4.57-4.57s4.57,2.04,4.57,4.57ZM132.39,117.25c-2.52,0-4.57,2.04-4.57,4.57v6.09c0,2.52,2.04,4.57,4.57,4.57s4.57-2.04,4.57-4.57v-6.09c0-2.52-2.04-4.57-4.57-4.57ZM187.17,238.99h-6.09c-2.52,0-4.57,2.04-4.57,4.57s2.04,4.57,4.57,4.57h6.09c2.52,0,4.57-2.04,4.57-4.57s-2.04-4.57-4.57-4.57ZM100.88,222.06c-1.78-1.78-4.67-1.78-6.46,0-1.78,1.78-1.78,4.67,0,6.46l4.3,4.3c.89.89,2.06,1.34,3.23,1.34s2.34-.45,3.23-1.34c1.78-1.78,1.78-4.67,0-6.46l-4.3-4.3h0ZM161.75,132.54c-1.78-1.78-4.67-1.78-6.46,0-1.78,1.78-1.78,4.67,0,6.46l4.3,4.3c.89.89,2.06,1.34,3.23,1.34s2.34-.45,3.23-1.34c1.78-1.78,1.78-4.67,0-6.46l-4.3-4.3h0ZM10.65,117.25c-2.52,0-4.57,2.04-4.57,4.57v6.09c0,2.52,2.04,4.57,4.57,4.57s4.57-2.04,4.57-4.57v-6.09c0-2.52-2.04-4.57-4.57-4.57ZM65.43,202.46h-6.09c-2.52,0-4.57,2.04-4.57,4.57s2.04,4.57,4.57,4.57h6.09c2.52,0,4.57-2.04,4.57-4.57s-2.04-4.57-4.57-4.57ZM42.16,126.45l-4.3,4.3c-1.78,1.78-1.78,4.67,0,6.46.89.89,2.06,1.34,3.23,1.34s2.34-.45,3.23-1.34l4.3-4.3c1.78-1.78,1.78-4.67,0-6.46-1.78-1.78-4.67-1.78-6.46,0Z"/>
    <path id="salt1" class="cls-1" d="M260.21,175.07v6.09c0,2.52-2.04,4.57-4.57,4.57s-4.57-2.04-4.57-4.57v-6.09c0-2.52,2.04-4.57,4.57-4.57s4.57,2.04,4.57,4.57ZM194.78,146.16c-2.52,0-4.57,2.04-4.57,4.57v6.09c0,2.52,2.04,4.57,4.57,4.57s4.57-2.04,4.57-4.57v-6.09c0-2.52-2.04-4.57-4.57-4.57ZM226.29,155.36l-4.3,4.3c-1.78,1.78-1.78,4.67,0,6.46.89.89,2.06,1.34,3.23,1.34s2.34-.45,3.23-1.34l4.3-4.3c1.78-1.78,1.78-4.67,0-6.46-1.78-1.78-4.67-1.78-6.46,0ZM141.07,228.41l-4.3,4.3c-1.78,1.78-1.78,4.67,0,6.46.89.89,2.06,1.34,3.23,1.34s2.34-.45,3.23-1.34l4.3-4.3c1.78-1.78,1.78-4.67,0-6.46-1.78-1.78-4.67-1.78-6.46,0Z"/>
  </g>
</svg>