<?xml version="1.0" encoding="UTF-8"?>
<svg id="pretzel" xmlns="http://www.w3.org/2000/svg" width="287" height="272.32" viewBox="0 0 287 272.32">
    <defs>
    <style>
      #salt path,
      #bites path {
        opacity: 0;
      }
    <!-- dropsalt -->
      @keyframes dropSalt {
        0% {
          transform: translateY(-40px);
          opacity: 0;
        }
        100% {
          transform: translateY(0);
          opacity: 1;
        }
      }

      #pretzel:hover #salt #salt1 {
        animation: dropSalt 0.4s ease-out forwards;
        animation-delay: 0.1s;
      }
      #pretzel:hover #salt #salt2 {
        animation: dropSalt 0.4s ease-out forwards;
        animation-delay: 0.2s;
      }
      #pretzel:hover #salt #salt3 {
        animation: dropSalt 0.4s ease-out forwards;
        animation-delay: 0.3s;
      }

    <!-- bites  -->
      @keyframes biteIn {
        from {
          opacity: 0;
        }
        to {
          opacity: 1;
        }
      }

      #pretzel:hover #bite1 {
        animation: biteIn 0.3s forwards;
        animation-delay: 0.8s;
        z-index: 3;
      }
      #pretzel:hover #bite2 {
        animation: biteIn 0.3s forwards;
        animation-delay: 1.7s;
        z-index: 4;
      }
      #pretzel:hover #bite3 {
        animation: biteIn 0.3s forwards;
        animation-delay: 2.8s;
        z-index: 5;
      }
    </style>
    <script>
      const pretzel = document.querySelector("#pretzel");

      function logTheId() {
        console.log("You clicked on: " + this.id);
      }

      pretzel.addEventListener("click", logTheId);
    </script>
  </defs>
  <g id="pretzel-body">
    <path d="M200.92,4.49h-6.24c-21.18,0-40.45,8.38-54.65,22-.02.02-.04.02-.06,0-14.21-13.62-33.47-22-54.65-22h-6.24C35.4,4.49,0,39.9,0,83.57v48.74c0,37.4,14.56,72.55,41,99,26.44,26.44,61.6,41,99,41s72.55-14.56,99-41c26.44-26.44,41-61.6,41-99v-48.74c0-43.67-35.4-79.08-79.08-79.08ZM48.7,83.52c0-16.73,13.61-30.34,30.34-30.34h5.62c16.52,0,30.51,12.92,31,29.43.37,12.71-7.08,24.15-18.78,28.96l-48.11,19.81s-.06,0-.06-.04v-47.82h-.01ZM140,223.62c-33.35,0-62.59-17.98-78.52-44.75,0-.02,0-.06.02-.07l53.91-22.2c.09-.04.19-.08.28-.12,15.58-6.49,33-6.5,48.58-.02.11.04.22.09.32.13l53.91,22.2s.04.04.02.07c-15.94,26.77-45.17,44.75-78.52,44.75h0ZM231.3,131.41l-48.17-19.84c-11.69-4.82-19.15-16.25-18.78-28.96.48-16.51,14.49-29.43,31-29.43h5.57c16.78,0,30.39,13.6,30.39,30.39v47.84h-.01Z" style="fill: #dc781e;"/>
    <path d="M152.17,271.79c-4.03.34-8.09.53-12.17.53-37.4,0-72.55-14.56-99-41C14.56,204.87,0,169.71,0,132.32v-48.79C0,39.94,35.45,4.49,79.03,4.49h6.29c3.05,0,6.07.18,9.03.52C55.01,9.5,11.19,39.21,11.19,79.73v48.79c0,37.4,14.56,72.55,41,99,23.55,23.55,67.18,41.46,99.98,44.28h0Z" style="fill: #c05501;"/>
  </g>
  <g id="salt">
    <path id="salt3" d="M143.04,47.1v6.09c0,2.52-2.04,4.57-4.57,4.57s-4.57-2.04-4.57-4.57v-6.09c0-2.52,2.04-4.57,4.57-4.57s4.57,2.04,4.57,4.57ZM199.35,18.19c-2.52,0-4.57,2.04-4.57,4.57v6.09c0,2.52,2.04,4.57,4.57,4.57s4.57-2.04,4.57-4.57v-6.09c0-2.52-2.04-4.57-4.57-4.57ZM254.13,139.93h-6.09c-2.52,0-4.57,2.04-4.57,4.57s2.04,4.57,4.57,4.57h6.09c2.52,0,4.57-2.04,4.57-4.57s-2.04-4.57-4.57-4.57ZM167.84,123c-1.78-1.78-4.67-1.78-6.46,0-1.78,1.78-1.78,4.67,0,6.46l4.3,4.3c.89.89,2.06,1.34,3.23,1.34s2.34-.45,3.23-1.34c1.78-1.78,1.78-4.67,0-6.46l-4.3-4.3h0ZM228.71,33.48c-1.78-1.78-4.67-1.78-6.46,0-1.78,1.78-1.78,4.67,0,6.46l4.3,4.3c.89.89,2.06,1.34,3.23,1.34s2.34-.45,3.23-1.34c1.78-1.78,1.78-4.67,0-6.46l-4.3-4.3h0ZM263.45,92.57l-4.3-4.3c-1.78-1.78-4.67-1.78-6.46,0-1.78,1.78-1.78,4.67,0,6.46l4.3,4.3c.89.89,2.06,1.34,3.23,1.34s2.34-.45,3.23-1.34c1.78-1.78,1.78-4.67,0-6.46h0ZM77.61,18.19c-2.52,0-4.57,2.04-4.57,4.57v6.09c0,2.52,2.04,4.57,4.57,4.57s4.57-2.04,4.57-4.57v-6.09c0-2.52-2.04-4.57-4.57-4.57ZM101.96,127.75c-2.52,0-4.57,2.04-4.57,4.57v6.09c0,2.52,2.04,4.57,4.57,4.57s4.57-2.04,4.57-4.57v-6.09c0-2.52-2.04-4.57-4.57-4.57ZM31.96,57.75h-6.09c-2.52,0-4.57,2.04-4.57,4.57s2.04,4.57,4.57,4.57h6.09c2.52,0,4.57-2.04,4.57-4.57s-2.04-4.57-4.57-4.57ZM132.39,103.4h-6.09c-2.52,0-4.57,2.04-4.57,4.57s2.04,4.57,4.57,4.57h6.09c2.52,0,4.57-2.04,4.57-4.57s-2.04-4.57-4.57-4.57ZM109.12,27.39l-4.3,4.3c-1.78,1.78-1.78,4.67,0,6.46.89.89,2.06,1.34,3.23,1.34s2.34-.45,3.23-1.34l4.3-4.3c1.78-1.78,1.78-4.67,0-6.46-1.78-1.78-4.67-1.78-6.46,0ZM23.9,100.44l-4.3,4.3c-1.78,1.78-1.78,4.67,0,6.46.89.89,2.06,1.34,3.23,1.34s2.34-.45,3.23-1.34l4.3-4.3c1.78-1.78,1.78-4.67,0-6.46-1.78-1.78-4.67-1.78-6.46,0Z" style="fill: #f7a941;"/>
    <path id="salt2" d="M76.08,150.58v6.09c0,2.52-2.04,4.57-4.57,4.57s-4.57-2.04-4.57-4.57v-6.09c0-2.52,2.04-4.57,4.57-4.57s4.57,2.04,4.57,4.57ZM132.39,121.67c-2.52,0-4.57,2.04-4.57,4.57v6.09c0,2.52,2.04,4.57,4.57,4.57s4.57-2.04,4.57-4.57v-6.09c0-2.52-2.04-4.57-4.57-4.57ZM187.17,243.41h-6.09c-2.52,0-4.57,2.04-4.57,4.57s2.04,4.57,4.57,4.57h6.09c2.52,0,4.57-2.04,4.57-4.57s-2.04-4.57-4.57-4.57ZM100.88,226.48c-1.78-1.78-4.67-1.78-6.46,0-1.78,1.78-1.78,4.67,0,6.46l4.3,4.3c.89.89,2.06,1.34,3.23,1.34s2.34-.45,3.23-1.34c1.78-1.78,1.78-4.67,0-6.46l-4.3-4.3h0ZM161.75,136.96c-1.78-1.78-4.67-1.78-6.46,0-1.78,1.78-1.78,4.67,0,6.46l4.3,4.3c.89.89,2.06,1.34,3.23,1.34s2.34-.45,3.23-1.34c1.78-1.78,1.78-4.67,0-6.46l-4.3-4.3h0ZM10.65,121.67c-2.52,0-4.57,2.04-4.57,4.57v6.09c0,2.52,2.04,4.57,4.57,4.57s4.57-2.04,4.57-4.57v-6.09c0-2.52-2.04-4.57-4.57-4.57ZM65.43,206.88h-6.09c-2.52,0-4.57,2.04-4.57,4.57s2.04,4.57,4.57,4.57h6.09c2.52,0,4.57-2.04,4.57-4.57s-2.04-4.57-4.57-4.57ZM42.16,130.87l-4.3,4.3c-1.78,1.78-1.78,4.67,0,6.46.89.89,2.06,1.34,3.23,1.34s2.34-.45,3.23-1.34l4.3-4.3c1.78-1.78,1.78-4.67,0-6.46-1.78-1.78-4.67-1.78-6.46,0Z" style="fill: #f7a941;"/>
    <path id="salt1" d="M260.21,179.49v6.09c0,2.52-2.04,4.57-4.57,4.57s-4.57-2.04-4.57-4.57v-6.09c0-2.52,2.04-4.57,4.57-4.57s4.57,2.04,4.57,4.57ZM194.78,150.58c-2.52,0-4.57,2.04-4.57,4.57v6.09c0,2.52,2.04,4.57,4.57,4.57s4.57-2.04,4.57-4.57v-6.09c0-2.52-2.04-4.57-4.57-4.57ZM226.29,159.78l-4.3,4.3c-1.78,1.78-1.78,4.67,0,6.46.89.89,2.06,1.34,3.23,1.34s2.34-.45,3.23-1.34l4.3-4.3c1.78-1.78,1.78-4.67,0-6.46-1.78-1.78-4.67-1.78-6.46,0h0ZM141.07,232.83l-4.3,4.3c-1.78,1.78-1.78,4.67,0,6.46.89.89,2.06,1.34,3.23,1.34s2.34-.45,3.23-1.34l4.3-4.3c1.78-1.78,1.78-4.67,0-6.46-1.78-1.78-4.67-1.78-6.46,0h0Z" style="fill: #f7a941;"/>
  </g>
  <g id="bites">
    <path id="bite1" d="M206.21,1.71c.21,6.62,5.16,12.02,11.58,12.95-.73,1.88-1.15,3.92-1.15,6.05,0,8.52,6.39,15.53,14.64,16.52v.14c0,15.21,12.33,27.54,27.54,27.54,5.19,0,10.02-1.43,14.16-3.92,1.74,4.7,5.87,8.24,10.92,9.11C275.43,33.49,244.39,5.52,206.21,1.71Z" style="fill: #fff;"/>
    <path id="bite2" d="M265.79,32.45c-5.98-3.83-13.09-6.05-20.71-6.05-3.52,0-6.94.48-10.18,1.37-2.2-10.57-11.56-18.5-22.78-18.5-.14,0-.28.02-.41.02.26-1.27.41-2.58.41-3.92s-.16-2.74-.45-4.04c-5.01-.86-10.15-1.33-15.41-1.33h-7.16c-4.89,0-9.68.4-14.37,1.16-.31,1.35-.48,2.76-.48,4.21,0,9.53,7.04,17.39,16.21,18.72-1.02,2.63-1.61,5.47-1.61,8.47,0,11.37,8.16,20.81,18.93,22.85-.18.73-.36,1.48-.49,2.24,13.86,4.61,23.85,17.67,23.85,33.07v10.06c4.32,1.69,9.03,2.62,13.95,2.62,9.68,0,18.52-3.58,25.28-9.48,3.64,4.83,9.41,7.96,15.91,7.96.24,0,.47-.02.71-.03v-11.12c0-22.19-7.97-42.49-21.2-58.25v-.02Z" style="fill: #fff;"/>
    <path id="bite3" d="M201.77,1.71h-6.36c-21.6,0-41.25,8.96-55.73,23.52-.02.02-.04.02-.06,0C125.13,10.67,105.49,1.71,83.89,1.71h-6.36c-17.81,0-34.26,6.06-47.6,16.31,10.23,10.17,24.03,16.42,39.24,16.42h.3c.59,6.84,2.1,13.41,4.39,19.57,1.19-.15,2.4-.22,3.62-.22h5.73c16.85,0,28.97,12.23,29.47,29.88.09,3.45-.33,6.81-1.19,9.99,7.55,2.98,17.85,6.23,26.39,6.23,9.77,0,21.35-3.72,29.76-7.58-.63-2.77-.95-5.65-.87-8.6.49-17.65,12.48-29.9,29.32-29.9h5.68c17.11,0,30.99,14.54,30.99,32.49v13.33c1.75.16,3.52.26,5.31.26,6.15,0,12.07-.95,17.68-2.68,4.94,12.62,14.58,22.67,26.64,27.78v-38.7c.01-46.71-36.1-84.57-80.63-84.57Z" style="fill: #fff;"/>
  </g>
</svg>