<?xml version="1.0" encoding="UTF-8"?>
<svg id="pretzel" xmlns="http://www.w3.org/2000/svg" width="280" height="267.83" viewBox="0 0 280 267.83">
  <defs>
    <style></style>
    <script>
      const pretzel = document.querySelector("#pretzel");

      function logTheId() {
        console.log("You clicked on: " + this.id);
      }

      pretzel.addEventListener("click", logTheId);
    </script>
  </defs>
  <path d="M200.97,0h-6.29c-21.2,0-40.48,8.39-54.68,22.03C125.79,8.39,106.52,0,85.32,0h-6.29c-43.58,0-79.03,35.45-79.03,79.03v48.79c0,37.4,14.56,72.55,41,99,26.44,26.44,61.6,41,99,41s72.55-14.56,99-41c26.44-26.44,41-61.6,41-99v-48.79C280,35.45,244.55,0,200.97,0ZM48.7,79.03c0-16.73,13.61-30.34,30.34-30.34h6.29c16.73,0,30.34,13.61,30.34,30.34,0,12.34-7.37,23.35-18.79,28.05l-48.17,19.84v-47.89h0ZM140,219.13c-33.37,0-62.62-18-78.55-44.8l53.96-22.22c9.32-3.84,17.61-9.29,24.59-15.96,6.99,6.67,15.27,12.13,24.59,15.96l53.96,22.22c-15.93,26.8-45.18,44.8-78.55,44.8ZM231.3,126.92l-48.17-19.84c-11.41-4.7-18.79-15.71-18.79-28.05,0-16.73,13.61-30.34,30.34-30.34h6.29c16.73,0,30.34,13.61,30.34,30.34v47.89h0Z" style="fill: #dc781e;"/>
  <path d="M152.17,267.3c-4.03.34-8.09.53-12.17.53-37.4,0-72.55-14.56-99-41C14.56,200.38,0,165.22,0,127.83v-48.79C0,35.45,35.45,0,79.03,0h6.29c3.05,0,6.07.18,9.03.52C55.01,5.01,24.35,38.51,24.35,79.03v48.79c0,37.4,14.56,72.55,41,99,23.55,23.55,54.02,37.67,86.82,40.48Z" style="fill: #c05501;"/>
  <path id="salt" d="M143.04,42.61v6.09c0,2.52-2.04,4.57-4.57,4.57s-4.57-2.04-4.57-4.57v-6.09c0-2.52,2.04-4.57,4.57-4.57,2.52,0,4.57,2.04,4.57,4.57ZM199.35,13.7c-2.52,0-4.57,2.04-4.57,4.57v6.09c0,2.52,2.04,4.57,4.57,4.57s4.57-2.04,4.57-4.57v-6.09c0-2.52-2.04-4.57-4.57-4.57ZM254.13,135.44h-6.09c-2.52,0-4.57,2.04-4.57,4.57s2.04,4.57,4.57,4.57h6.09c2.52,0,4.57-2.04,4.57-4.57s-2.04-4.57-4.57-4.57ZM167.84,118.51c-1.78-1.78-4.67-1.78-6.46,0-1.78,1.78-1.78,4.67,0,6.46l4.3,4.3c.89.89,2.06,1.34,3.23,1.34s2.34-.45,3.23-1.34c1.78-1.78,1.78-4.67,0-6.46l-4.3-4.3ZM228.71,28.99c-1.78-1.78-4.67-1.78-6.46,0-1.78,1.78-1.78,4.67,0,6.46l4.3,4.3c.89.89,2.06,1.34,3.23,1.34s2.34-.45,3.23-1.34c1.78-1.78,1.78-4.67,0-6.46l-4.3-4.3ZM263.45,88.08l-4.3-4.3c-1.78-1.78-4.67-1.78-6.46,0-1.78,1.78-1.78,4.67,0,6.46l4.3,4.3c.89.89,2.06,1.34,3.23,1.34s2.34-.45,3.23-1.34c1.78-1.78,1.78-4.67,0-6.46ZM77.61,13.7c-2.52,0-4.57,2.04-4.57,4.57v6.09c0,2.52,2.04,4.57,4.57,4.57s4.57-2.04,4.57-4.57v-6.09c0-2.52-2.04-4.57-4.57-4.57ZM101.96,123.26c-2.52,0-4.57,2.04-4.57,4.57v6.09c0,2.52,2.04,4.57,4.57,4.57s4.57-2.04,4.57-4.57v-6.09c0-2.52-2.04-4.57-4.57-4.57ZM31.96,53.26h-6.09c-2.52,0-4.57,2.04-4.57,4.57s2.04,4.57,4.57,4.57h6.09c2.52,0,4.57-2.04,4.57-4.57s-2.04-4.57-4.57-4.57ZM132.39,98.91h-6.09c-2.52,0-4.57,2.04-4.57,4.57s2.04,4.57,4.57,4.57h6.09c2.52,0,4.57-2.04,4.57-4.57s-2.04-4.57-4.57-4.57ZM109.12,22.9l-4.3,4.3c-1.78,1.78-1.78,4.67,0,6.46.89.89,2.06,1.34,3.23,1.34s2.34-.45,3.23-1.34l4.3-4.3c1.78-1.78,1.78-4.67,0-6.46-1.78-1.78-4.67-1.78-6.46,0ZM23.9,95.95l-4.3,4.3c-1.78,1.78-1.78,4.67,0,6.46.89.89,2.06,1.34,3.23,1.34s2.34-.45,3.23-1.34l4.3-4.3c1.78-1.78,1.78-4.67,0-6.46-1.78-1.78-4.67-1.78-6.46,0Z" style="fill: #f7a941;"/>
</svg>