<?xml version="1.0" encoding="UTF-8"?>
<svg xmlns="http://www.w3.org/2000/svg" width="280" height="200.87" viewBox="0 0 280 200.87">
  <g id="pudding">
    <path d="M267.83,170.43v9.13H12.17v-9.13L43.37,12.17h193.26l31.2,158.26Z" style="fill: #ffc197;"/>
    <path d="M58.12,60.87l-21.6,109.57v9.13H12.17v-9.13l21.6-109.57h24.35Z" style="fill: #e5965c;"/>
    <path d="M0,170.43h280c0,16.81-13.63,30.43-30.43,30.43H30.43c-16.81,0-30.43-13.63-30.43-30.43h0Z" style="fill: #e9f1df;"/>
    <path d="M24.35,170.43h0c0,16.81,13.63,30.43,30.43,30.43h-24.35c-16.81,0-30.43-13.63-30.43-30.43h24.35Z" style="fill: #d4dbca;"/>
  </g>
  <g id="syrup">
    <path d="M261.74,82.17c0,8.31-6.65,15.06-14.92,15.21-8.53.16-15.51-7.03-15.51-15.56v-8.79h-24.35v51.74c0,8.4-6.81,15.22-15.22,15.22s-15.22-6.81-15.22-15.22v-30.44c-2.47,1.86-5.52,2.98-8.84,3.04-8.53.16-15.51-7.03-15.51-15.56v-8.79h-48.7v21.3c0,8.31-6.65,15.06-14.92,15.21-8.53.16-15.51-7.03-15.51-15.56v-20.96h-24.35v8.79c0,8.53-6.98,15.72-15.51,15.56-8.27-.16-14.92-6.91-14.92-15.21l3.54-37.91c1.02-10.94,5.53-21.35,13.14-29.28C43.88,5.68,56.42,0,70.09,0h139.82C223.58,0,236.12,5.68,245.05,14.98c7.61,7.93,12.12,18.33,13.14,29.28l3.54,37.91Z" style="fill: #ad6251;"/>
    <path d="M191.74,79.13v60.87c-8.4,0-15.22-6.81-15.22-15.22v-30.44c3.7-2.78,6.09-7.19,6.09-12.17v-9.13h3.04c3.36,0,6.09,2.73,6.09,6.09ZM240.43,73.04h-9.13v9.13c0,8.4,6.81,15.22,15.22,15.22v-18.26c0-3.36-2.73-6.09-6.09-6.09ZM161.3,73.04h-9.13v9.13c0,8.4,6.81,15.22,15.22,15.22v-18.26c0-3.36-2.73-6.09-6.09-6.09ZM82.17,73.04h-9.13v21.3c0,8.4,6.81,15.22,15.22,15.22v-30.43c0-3.36-2.73-6.09-6.09-6.09ZM34.95,14.98c-7.61,7.93-12.12,18.33-13.14,29.28l-3.54,37.91c0,8.31,6.65,15.06,14.92,15.21,3.54.07,6.81-1.13,9.42-3.17v-12.05l3.54-37.91c1.02-10.94,5.53-21.35,13.14-29.28C68.23,5.68,80.77,0,94.43,0h-24.35c-13.67,0-26.21,5.68-35.14,14.98Z" style="fill: #844f41;"/>
  </g>
</svg>